<svg xmlns="http://www.w3.org/2000/svg" version="1.1" xmlns:xlink="http://www.w3.org/1999/xlink" xmlns:svgjs="http://svgjs.dev/svgjs" width="2000" height="2024" viewBox="0 0 2000 2024"><g transform="matrix(1,0,0,1,1.7679386695914445,0.8194331983804659)"><svg viewBox="0 0 244 247" data-background-color="#fce44d" preserveAspectRatio="xMidYMid meet" height="2024" width="2000" xmlns="http://www.w3.org/2000/svg" xmlns:xlink="http://www.w3.org/1999/xlink"><g id="tight-bounds" transform="matrix(1,0,0,1,-0.21568851769015396,-0.09999999999999432)"><svg viewBox="0 0 244.43135999999998 247.2" height="247.2" width="244.43135999999998"><g><svg></svg></g><g><svg viewBox="0 0 244.43135999999998 247.2" height="247.2" width="244.43135999999998"><g transform="matrix(1,0,0,1,0,91.29705701766784)"><svg viewBox="0 0 244.43135999999998 64.6058859646643" height="64.6058859646643" width="244.43135999999998"><g><svg viewBox="0 0 244.43135999999998 64.6058859646643" height="64.6058859646643" width="244.43135999999998"><g><svg viewBox="0 0 244.43135999999998 64.6058859646643" height="64.6058859646643" width="244.43135999999998"><g><svg viewBox="0 0 244.43135999999998 64.6058859646643" height="64.6058859646643" width="244.43135999999998"><g><svg viewBox="0 0 244.43135999999998 64.6058859646643" height="64.6058859646643" width="244.43135999999998"><g><svg viewBox="0 0 244.43135999999998 64.6058859646643" height="64.6058859646643" width="244.43135999999998"><g transform="matrix(1,0,0,1,0,0)"><svg width="244.43135999999998" viewBox="2.3499999046325684 -37.099998474121094 141.489990234375 37.39999771118164" height="64.6058859646643" data-palette-color="#374151"><path d="M15.35 0.3Q11.45 0.3 7.88-0.95 4.3-2.2 2.35-4.25L2.35-4.25 3.8-7.1Q5.7-5.2 8.85-4.03 12-2.85 15.35-2.85L15.35-2.85Q20.05-2.85 22.4-4.58 24.75-6.3 24.75-9.05L24.75-9.05Q24.75-11.15 23.48-12.4 22.2-13.65 20.35-14.33 18.5-15 15.2-15.8L15.2-15.8Q11.25-16.8 8.9-17.73 6.55-18.65 4.88-20.55 3.2-22.45 3.2-25.7L3.2-25.7Q3.2-28.35 4.6-30.53 6-32.7 8.9-34 11.8-35.3 16.1-35.3L16.1-35.3Q19.1-35.3 21.98-34.48 24.85-33.65 26.95-32.2L26.95-32.2 25.7-29.25Q23.5-30.7 21-31.43 18.5-32.15 16.1-32.15L16.1-32.15Q11.5-32.15 9.18-30.38 6.85-28.6 6.85-25.8L6.85-25.8Q6.85-23.7 8.13-22.43 9.4-21.15 11.33-20.48 13.25-19.8 16.5-19L16.5-19Q20.35-18.05 22.73-17.13 25.1-16.2 26.75-14.33 28.4-12.45 28.4-9.25L28.4-9.25Q28.4-6.6 26.98-4.42 25.55-2.25 22.6-0.98 19.65 0.3 15.35 0.3L15.35 0.3ZM49.1-26.5Q54.05-26.5 56.97-23.63 59.9-20.75 59.9-15.25L59.9-15.25 59.9 0 56.35 0 56.35-14.9Q56.35-19 54.3-21.15 52.25-23.3 48.45-23.3L48.45-23.3Q44.2-23.3 41.72-20.78 39.25-18.25 39.25-13.8L39.25-13.8 39.25 0 35.7 0 35.7-37.1 39.25-37.1 39.25-21.7Q40.7-24 43.25-25.25 45.8-26.5 49.1-26.5L49.1-26.5ZM78.75-26.5Q83.89-26.5 86.64-23.93 89.39-21.35 89.39-16.3L89.39-16.3 89.39 0 86 0 86-4.1Q84.8-2.05 82.47-0.9 80.14 0.25 76.94 0.25L76.94 0.25Q72.55 0.25 69.94-1.85 67.34-3.95 67.34-7.4L67.34-7.4Q67.34-10.75 69.77-12.8 72.19-14.85 77.5-14.85L77.5-14.85 85.84-14.85 85.84-16.45Q85.84-19.85 83.94-21.63 82.05-23.4 78.39-23.4L78.39-23.4Q75.89-23.4 73.59-22.58 71.3-21.75 69.64-20.3L69.64-20.3 68.05-22.95Q70.05-24.65 72.84-25.58 75.64-26.5 78.75-26.5L78.75-26.5ZM77.5-2.55Q80.5-2.55 82.64-3.93 84.8-5.3 85.84-7.9L85.84-7.9 85.84-12.2 77.59-12.2Q70.84-12.2 70.84-7.5L70.84-7.5Q70.84-5.2 72.59-3.88 74.34-2.55 77.5-2.55L77.5-2.55ZM102.44-21.15Q103.69-23.8 106.17-25.15 108.64-26.5 112.29-26.5L112.29-26.5 112.29-23.05 111.44-23.1Q107.29-23.1 104.94-20.55 102.59-18 102.59-13.4L102.59-13.4 102.59 0 99.04 0 99.04-26.3 102.44-26.3 102.44-21.15ZM122.79-3.2L143.84-3.2 143.84 0 119.09 0 119.09-35 143.09-35 143.09-31.8 122.79-31.8 122.79-19.35 140.89-19.35 140.89-16.2 122.79-16.2 122.79-3.2Z" opacity="1" transform="matrix(1,0,0,1,0,0)" fill="#374151" class="undefined-text-0" data-fill-palette-color="primary" id="text-0"></path></svg></g></svg></g></svg></g></svg></g><g></g></svg></g></svg></g></svg></g><path d="M0 85.297L0 1 244.431 1 244.431 85.297 238.605 85.297 238.605 6.826 5.826 6.826 5.826 85.297 0 85.297M0 161.903L0 246.2 244.431 246.2 244.431 161.903 238.605 161.903 238.605 240.374 5.826 240.374 5.826 161.903 0 161.903" fill="#374151" stroke="transparent" data-fill-palette-color="primary"></path></svg></g><defs></defs></svg><rect width="244.43135999999998" height="247.2" fill="none" stroke="none" visibility="hidden"></rect></g></svg></g></svg>